<?xml version="1.0" standalone="no"?>
<!DOCTYPE svg PUBLIC "-//W3C//DTD SVG 20010904//EN"
 "http://www.w3.org/TR/2001/REC-SVG-20010904/DTD/svg10.dtd">
<svg version="1.0" xmlns="http://www.w3.org/2000/svg"
 width="128.000000pt" height="128.000000pt" viewBox="0 0 128.000000 128.000000"
 preserveAspectRatio="xMidYMid meet">

<g transform="translate(0.000000,128.000000) scale(0.100000,-0.100000)"
fill="#000000" stroke="none">
<path d="M400 845 l0 -35 -85 0 -85 0 0 -34 0 -33 410 0 410 0 0 33 0 34 -85
0 -85 0 0 35 0 35 -240 0 -240 0 0 -35z m460 -15 c0 -19 -7 -20 -220 -20 -213
0 -220 1 -220 20 0 19 7 20 220 20 213 0 220 -1 220 -20z m-480 -40 c0 -5 -22
-10 -50 -10 -27 0 -50 5 -50 10 0 6 23 10 50 10 28 0 50 -4 50 -10z m300 0 c0
-6 -46 -10 -119 -10 -69 0 -122 4 -126 10 -4 6 38 10 119 10 77 0 126 -4 126
-10z m180 0 c0 -6 -34 -10 -85 -9 -47 1 -85 5 -85 10 0 5 38 9 85 9 51 0 85
-4 85 -10z m140 0 c0 -5 -22 -10 -50 -10 -27 0 -50 5 -50 10 0 6 23 10 50 10
28 0 50 -4 50 -10z"/>
<path d="M230 715 c0 -13 22 -15 140 -15 118 0 140 2 140 15 0 13 -22 15 -140
15 -118 0 -140 -2 -140 -15z"/>
<path d="M770 715 c0 -13 22 -15 140 -15 118 0 140 2 140 15 0 13 -22 15 -140
15 -118 0 -140 -2 -140 -15z"/>
<path d="M230 540 l0 -140 140 0 140 0 0 140 0 140 -140 0 -140 0 0 -140z"/>
<path d="M770 540 l0 -140 140 0 140 0 0 140 0 140 -140 0 -140 0 0 -140z"/>
</g>
</svg>
